<?xml version="1.0" encoding="utf-8"?>
<!-- Generator: Adobe Illustrator 19.1.0, SVG Export Plug-In . SVG Version: 6.00 Build 0)  -->
<svg version="1.1" id="Livello_1" xmlns="http://www.w3.org/2000/svg" xmlns:xlink="http://www.w3.org/1999/xlink" x="0px" y="0px"
	 viewBox="0 0 190 60" style="enable-background:new 0 0 190 60;" xml:space="preserve">
<style type="text/css">
	.st0{display:none;fill-rule:evenodd;clip-rule:evenodd;fill:#88CAC1;}
	.st1{display:none;fill-rule:evenodd;clip-rule:evenodd;fill:#ED758E;}
	.st2{fill-rule:evenodd;clip-rule:evenodd;fill:#ED758E;}
	.st3{fill:#FFFFFF;}
	.st4{display:none;}
	.st5{display:inline;fill:none;}
	.st6{display:inline;fill:#ED758E;}
	.st7{font-family:'GillSans-SemiBold';}
	.st8{font-size:27px;}
	.st9{letter-spacing:1;}
	.st10{fill:#ED758E;}
</style>
<image style="display:none;overflow:visible;" width="190" height="60" xlink:href="../../../../workspace/portfolio/public/play/assets/images/logo-dark.png" >
</image>
<circle class="st0" cx="32.5" cy="105.6" r="30.5"/>
<circle class="st1" cx="96.5" cy="105.6" r="30.5"/>
<circle class="st2" cx="30.2" cy="29.6" r="27.9"/>
<path class="st3" d="M44.1,11.4c-0.6-0.5-1.4-0.6-2,0c-3.3,3.1-16.4,15.6-16.4,15.6c-1.7,1.6-3,3.3-3.2,5.8
	c-0.3,3.3,1.7,6.5,4.8,7.7c3,1.2,6.6,0.2,8.7-2.3c2.4-3,2.1-7.4-0.5-10.2c-0.7-0.8-1.5-1.5-2.2-2.3l-2,2c0.8,0.8,1.5,1.6,2.3,2.4
	c1.6,1.7,1.9,4.3,0.5,6.2c-1.4,1.9-4,2.5-6,1.4c-2.1-1.1-3.1-3.6-2.4-5.8c0.4-1.4,1.6-2.1,2.6-3.1c0.5-0.5,14.9-14.3,15.1-14.6
	c4.9,4.4,7.4,10.9,6.6,17.5c-0.8,6.1-4.5,11.5-9.7,14.6c-5.4,3.1-12.1,3.6-17.8,1C16.7,44.9,12.5,39.9,11,34
	c-1.8-7.2,0.7-14.7,6.1-19.6l9.9,9.3l2-2c-2.1-1.9-6.5-6-9.3-8.7c-0.5-0.5-1.1-1-1.6-1.5c-0.6-0.6-1.4-0.5-2,0
	C10,16.4,6.8,24.3,7.8,32.1c0.9,7,5,13.2,11,16.7c6.2,3.6,13.9,4,20.4,1.1c6.3-2.8,11.1-8.5,12.8-15.2C54.2,26.2,51,16.9,44.1,11.4z
	"/>
<g class="st4">
	<rect x="63.3" y="20.3" class="st5" width="127.7" height="39.7"/>
	<text transform="matrix(1 0 0 1 63.3333 38.7503)" class="st6 st7 st8 st9">ANUBE</text>
</g>
<g>
	<g>
		<path class="st10" d="M76.7,20.3l8.1,18.4h-3.8l-1.9-4.5H71l-1.8,4.5h-3.7l7.6-18.4H76.7z M72.1,31.6H78l-3.1-7.3L72.1,31.6z"/>
		<path class="st10" d="M90.8,20.3l10.9,12.9V20.3h3.5v18.4h-3.1l-11-13.1v13.1h-3.5V20.3H90.8z"/>
		<path class="st10" d="M113.4,20.3v10.7c0,1.1,0.2,2,0.5,2.6c0.3,0.7,0.9,1.2,1.6,1.6s1.6,0.6,2.6,0.6c1.1,0,2-0.2,2.8-0.6
			c0.8-0.4,1.3-0.9,1.7-1.6c0.4-0.7,0.5-1.6,0.5-2.9V20.3h3.6v10.9c0,2.5-0.7,4.4-2.2,5.7c-1.5,1.3-3.6,2-6.3,2
			c-1.7,0-3.2-0.3-4.4-0.9c-1.3-0.6-2.2-1.5-2.9-2.6c-0.7-1.1-1-2.5-1-4V20.3H113.4z"/>
		<path class="st10" d="M138.1,20.3c1.7,0,3.1,0.4,4.1,1.3s1.6,2,1.6,3.3c0,0.8-0.2,1.6-0.7,2.2s-1.1,1.2-1.9,1.5v0.2
			c1.3,0.3,2.3,0.9,3,1.7c0.7,0.9,1.1,1.9,1.1,3c0,1-0.3,1.9-0.8,2.7c-0.5,0.8-1.2,1.4-2.2,1.8s-2,0.6-3.3,0.6h-7.7V20.3H138.1z
			 M137.1,28c0.9,0,1.7-0.2,2.2-0.7s0.8-1.1,0.8-1.9c0-0.7-0.3-1.3-0.8-1.7c-0.5-0.4-1.2-0.6-2-0.6h-2.6V28H137.1z M137.9,36
			c1.2,0,2.1-0.2,2.7-0.7c0.6-0.5,0.9-1.1,0.9-2c0-0.8-0.3-1.4-0.9-1.9c-0.6-0.5-1.4-0.7-2.5-0.7h-3.3V36H137.9z"/>
		<path class="st10" d="M160.9,20.3v2.8h-8.3V28h8v2.8h-8V36h8.5v2.8H149V20.3H160.9z"/>
	</g>
</g>
</svg>
