<?xml version="1.0" encoding="utf-8"?>
<!-- Generator: Adobe Illustrator 19.1.0, SVG Export Plug-In . SVG Version: 6.00 Build 0)  -->
<svg version="1.1" id="Livello_1" xmlns="http://www.w3.org/2000/svg" xmlns:xlink="http://www.w3.org/1999/xlink" x="0px" y="0px"
	 viewBox="-404 471 190 60" style="enable-background:new -404 471 190 60;" xml:space="preserve">
<style type="text/css">
	.st0{display:none;fill:#88CAC1;}
	.st1{display:none;fill:#ED758E;}
	.st2{fill:#ED758E;}
	.st3{display:none;fill:#FFFFFF;}
	.st4{fill:#FFFFFF;}
	.st5{display:none;}
	.st6{display:inline;fill:#ED758E;}
	.st7{font-family:'GillSans-SemiBold';}
	.st8{font-size:27px;}
	.st9{display:inline;}
	.st10{enable-background:new    ;}
</style>
<circle class="st0" cx="-371.5" cy="576.6" r="30.5"/>
<circle class="st1" cx="-307.5" cy="576.6" r="30.5"/>
<circle class="st2" cx="-373.8" cy="500.6" r="27.9"/>
<path id="logo_space" class="st3" d="M-359.9,482.4c-0.6-0.5-1.4-0.6-2,0c-3.3,3.1-16.4,15.6-16.4,15.6c-1.7,1.6-3,3.3-3.2,5.8
	c-0.3,3.3,1.7,6.5,4.8,7.7c3,1.2,6.6,0.2,8.7-2.3c2.4-3,2.1-7.4-0.5-10.2c-0.7-0.8-1.5-1.5-2.2-2.3l-2,2c0.8,0.8,1.5,1.6,2.3,2.4
	c1.6,1.7,1.9,4.3,0.5,6.2c-1.4,1.9-4,2.5-6,1.4c-2.1-1.1-3.1-3.6-2.4-5.8c0.4-1.4,1.6-2.1,2.6-3.1c0.5-0.5,14.9-14.3,15.1-14.6
	c4.9,4.4,7.4,10.9,6.6,17.5c-0.8,6.1-4.5,11.5-9.7,14.6c-5.4,3.1-12.1,3.6-17.8,1c-5.8-2.4-10-7.4-11.5-13.3
	c-1.8-7.2,0.7-14.7,6.1-19.6l9.9,9.3l2-2c-2.1-1.9-6.5-6-9.3-8.7c-0.5-0.5-1.1-1-1.6-1.5c-0.6-0.6-1.4-0.5-2,0
	c-6.1,4.9-9.3,12.8-8.3,20.6c0.9,7,5,13.2,11,16.7c6.2,3.6,13.9,4,20.4,1.1c6.3-2.8,11.1-8.5,12.8-15.2
	C-349.8,497.2-353,487.9-359.9,482.4z"/>
<path id="logo_space_1_" class="st4" d="M-359.9,482.4c-0.6-0.5-1.4-0.6-2,0c-3.3,3.1-16.4,15.6-16.4,15.6c-1.7,1.6-3,3.3-3.2,5.8
	c-0.3,3.3,1.7,6.5,4.8,7.7c3,1.2,6.6,0.2,8.7-2.3c2.4-3,2.1-7.4-0.5-10.2c-0.7-0.8-1.5-1.6-2.2-2.3l-2,2c0.8,0.8,1.5,1.6,2.3,2.4
	c1.6,1.7,1.9,4.3,0.5,6.2c-1.4,1.9-4,2.5-6,1.4c-2.1-1.1-3.1-3.6-2.4-5.8c0.4-1.4,1.6-2.1,2.6-3.1c0.5-0.5,14.9-14.3,15.1-14.6
	c4.9,4.4,7.4,10.9,6.6,17.5c-0.8,6.1-4.5,11.5-9.7,14.6c-5.4,3.1-12.1,3.6-17.8,1c-5.8-2.4-10-7.4-11.5-13.3
	c-1.8-7.2,0.7-14.7,6.1-19.6l14.2,13.3l2-2c-2.1-1.9-10.8-10-13.6-12.7c-0.5-0.5-1.1-1-1.6-1.5c-0.6-0.6-1.4-0.5-2,0
	c-6.1,4.9-9.3,12.8-8.3,20.6c0.9,7,5,13.2,11,16.7c6.2,3.6,13.9,4,20.4,1.1c6.3-2.8,11.1-8.5,12.8-15.2
	C-349.8,497.2-353,487.9-359.9,482.4z"/>
<g class="st5">
	<text transform="matrix(1 0 0 1 -340.6667 509.7503)" class="st6 st7 st8">MANUBE</text>
</g>
<g class="st5">
	<g class="st9">
		<path class="st2" d="M-327.3,491.3l8.1,18.4h-3.8l-1.9-4.5h-8.1l-1.8,4.5h-3.7l7.6-18.4C-330.9,491.3-327.3,491.3-327.3,491.3z
			 M-331.9,502.6h5.9l-3.1-7.3L-331.9,502.6z"/>
		<path class="st2" d="M-313.2,491.3l10.9,12.9v-12.9h3.5v18.4h-3.1l-11-13.1v13.1h-3.5v-18.4H-313.2z"/>
		<path class="st2" d="M-290.6,491.3V502c0,1.1,0.2,2,0.5,2.6c0.3,0.7,0.9,1.2,1.6,1.6c0.7,0.4,1.6,0.6,2.6,0.6c1.1,0,2-0.2,2.8-0.6
			c0.8-0.4,1.3-0.9,1.7-1.6c0.4-0.7,0.5-1.6,0.5-2.9v-10.4h3.6v10.9c0,2.5-0.7,4.4-2.2,5.7c-1.5,1.3-3.6,2-6.3,2
			c-1.7,0-3.2-0.3-4.4-0.9c-1.3-0.6-2.2-1.5-2.9-2.6c-0.7-1.1-1-2.5-1-4v-11.1H-290.6z"/>
		<path class="st2" d="M-265.9,491.3c1.7,0,3.1,0.4,4.1,1.3s1.6,2,1.6,3.3c0,0.8-0.2,1.6-0.7,2.2s-1.1,1.2-1.9,1.5v0.2
			c1.3,0.3,2.3,0.9,3,1.7c0.7,0.9,1.1,1.9,1.1,3c0,1-0.3,1.9-0.8,2.7c-0.5,0.8-1.2,1.4-2.2,1.8s-2,0.6-3.3,0.6h-7.7v-18.3H-265.9z
			 M-266.9,499c0.9,0,1.7-0.2,2.2-0.7s0.8-1.1,0.8-1.9c0-0.7-0.3-1.3-0.8-1.7c-0.5-0.4-1.2-0.6-2-0.6h-2.6v4.9H-266.9z M-266.1,507
			c1.2,0,2.1-0.2,2.7-0.7c0.6-0.5,0.9-1.1,0.9-2c0-0.8-0.3-1.4-0.9-1.9c-0.6-0.5-1.4-0.7-2.5-0.7h-3.3v5.3H-266.1z"/>
		<path class="st2" d="M-243.1,491.3v2.8h-8.3v4.9h8v2.8h-8v5.2h8.5v2.8H-255v-18.5H-243.1z"/>
	</g>
</g>
<g class="st10">
	<path class="st2" d="M-332.4,491.3l6.1,7.3l6.1-7.3h3.2v18.4h-3.6v-12.9h-0.1l-5.3,6.5h-0.5l-5.3-6.5h-0.1v12.9h-3.6v-18.4H-332.4z
		"/>
	<path class="st2" d="M-302.8,491.3l8.1,18.4h-3.8l-1.9-4.5h-8.2l-1.8,4.5h-3.7l7.6-18.4H-302.8z M-307.4,502.6h5.9l-3.1-7.3
		L-307.4,502.6z"/>
	<path class="st2" d="M-288.3,491.3l10.9,12.9v-12.9h3.5v18.4h-3.1l-11-13.1v13.1h-3.5v-18.4H-288.3z"/>
	<path class="st2" d="M-265.4,491.3v10.7c0,1.1,0.2,2,0.5,2.6c0.3,0.7,0.9,1.2,1.6,1.6s1.6,0.6,2.6,0.6c1.1,0,2-0.2,2.8-0.6
		c0.8-0.4,1.3-0.9,1.7-1.6c0.4-0.7,0.5-1.6,0.5-2.9v-10.5h3.6v10.9c0,2.5-0.7,4.4-2.2,5.7c-1.5,1.3-3.6,2-6.3,2
		c-1.7,0-3.2-0.3-4.4-0.9c-1.3-0.6-2.2-1.5-2.9-2.6c-0.7-1.1-1-2.5-1-4v-11.1H-265.4z"/>
	<path class="st2" d="M-240.5,491.3c1.7,0,3.1,0.4,4.1,1.3c1.1,0.9,1.6,2,1.6,3.3c0,0.8-0.2,1.6-0.7,2.2c-0.4,0.6-1.1,1.2-1.9,1.5
		v0.2c1.3,0.3,2.3,0.9,3,1.7c0.7,0.9,1.1,1.9,1.1,3c0,1-0.3,1.9-0.8,2.7c-0.5,0.8-1.2,1.4-2.2,1.8c-0.9,0.4-2,0.6-3.3,0.6h-7.7
		v-18.4H-240.5z M-241.5,499c0.9,0,1.7-0.2,2.2-0.7s0.8-1.1,0.8-1.9c0-0.7-0.3-1.3-0.8-1.7c-0.5-0.4-1.2-0.6-2-0.6h-2.6v4.9H-241.5z
		 M-240.6,507c1.2,0,2.1-0.2,2.7-0.7c0.6-0.5,0.9-1.1,0.9-2c0-0.8-0.3-1.4-0.9-1.9c-0.6-0.5-1.4-0.7-2.5-0.7h-3.3v5.2H-240.6z"/>
	<path class="st2" d="M-217.4,491.3v2.8h-8.3v4.8h8v2.8h-8v5.2h8.5v2.8h-12.1v-18.4H-217.4z"/>
</g>
</svg>
