<?xml version="1.0" encoding="utf-8"?>
<!-- Generator: Adobe Illustrator 19.1.0, SVG Export Plug-In . SVG Version: 6.00 Build 0)  -->
<svg version="1.1" id="Livello_1" xmlns="http://www.w3.org/2000/svg" xmlns:xlink="http://www.w3.org/1999/xlink" x="0px" y="0px"
	 viewBox="-154 221 190 60" style="enable-background:new -154 221 190 60;" xml:space="preserve">
<style type="text/css">
	.st0{display:none;fill:#88CAC1;}
	.st1{display:none;fill:#ED758E;}
	.st2{display:none;fill:#FFFFFF;}
	.st3{display:none;}
	.st4{display:inline;}
	.st5{fill:#ED758E;}
	.st6{fill:#FFFFFF;}
	.st7{display:inline;fill:#ED758E;}
	.st8{font-family:'Dosis-SemiBold';}
	.st9{font-size:28px;}
	.st10{letter-spacing:1;}
	.st11{enable-background:new    ;}
</style>
<circle class="st0" cx="-525.5" cy="797.6" r="30.5"/>
<circle class="st1" cx="-461.5" cy="797.6" r="30.5"/>
<path id="logo_space" class="st2" d="M-513.9,703.4c-0.6-0.5-1.4-0.6-2,0c-3.3,3.1-16.4,15.6-16.4,15.6c-1.7,1.6-3,3.3-3.2,5.8
	c-0.3,3.3,1.7,6.5,4.8,7.7c3,1.2,6.6,0.2,8.7-2.3c2.4-3,2.1-7.4-0.5-10.2c-0.7-0.8-1.5-1.5-2.2-2.3l-2,2c0.8,0.8,1.5,1.6,2.3,2.4
	c1.6,1.7,1.9,4.3,0.5,6.2c-1.4,1.9-4,2.5-6,1.4c-2.1-1.1-3.1-3.6-2.4-5.8c0.4-1.4,1.6-2.1,2.6-3.1c0.5-0.5,14.9-14.3,15.1-14.6
	c4.9,4.4,7.4,10.9,6.6,17.5c-0.8,6.1-4.5,11.5-9.7,14.6c-5.4,3.1-12.1,3.6-17.8,1c-5.8-2.4-10-7.4-11.5-13.3
	c-1.8-7.2,0.7-14.7,6.1-19.6l9.9,9.3l2-2c-2.1-1.9-6.5-6-9.3-8.7c-0.5-0.5-1.1-1-1.6-1.5c-0.6-0.6-1.4-0.5-2,0
	c-6.1,4.9-9.3,12.8-8.3,20.6c0.9,7,5,13.2,11,16.7c6.2,3.6,13.9,4,20.4,1.1c6.3-2.8,11.1-8.5,12.8-15.2
	C-503.8,718.2-507,708.9-513.9,703.4z"/>
<g class="st3">
	
		<image style="display:inline;overflow:visible;enable-background:new    ;" width="118" height="30" xlink:href="30112E61A61E7A04.png"  transform="matrix(1 0 0 1 -495 708)">
	</image>
</g>
<g class="st3">
	<g class="st4">
		<path class="st5" d="M-481.3,712.3l8.1,18.4h-3.8l-1.9-4.5h-8.1l-1.8,4.5h-3.7l7.6-18.4C-484.9,712.3-481.3,712.3-481.3,712.3z
			 M-485.9,723.6h5.9l-3.1-7.3L-485.9,723.6z"/>
		<path class="st5" d="M-467.2,712.3l10.9,12.9v-12.9h3.5v18.4h-3.1l-11-13.1v13.1h-3.5v-18.4H-467.2z"/>
		<path class="st5" d="M-444.6,712.3V723c0,1.1,0.2,2,0.5,2.6c0.3,0.7,0.9,1.2,1.6,1.6s1.6,0.6,2.6,0.6c1.1,0,2-0.2,2.8-0.6
			s1.3-0.9,1.7-1.6c0.4-0.7,0.5-1.6,0.5-2.9v-10.4h3.6v10.9c0,2.5-0.7,4.4-2.2,5.7c-1.5,1.3-3.6,2-6.3,2c-1.7,0-3.2-0.3-4.4-0.9
			c-1.3-0.6-2.2-1.5-2.9-2.6c-0.7-1.1-1-2.5-1-4v-11.1L-444.6,712.3L-444.6,712.3z"/>
		<path class="st5" d="M-419.9,712.3c1.7,0,3.1,0.4,4.1,1.3s1.6,2,1.6,3.3c0,0.8-0.2,1.6-0.7,2.2s-1.1,1.2-1.9,1.5v0.2
			c1.3,0.3,2.3,0.9,3,1.7c0.7,0.9,1.1,1.9,1.1,3c0,1-0.3,1.9-0.8,2.7s-1.2,1.4-2.2,1.8s-2,0.6-3.3,0.6h-7.7v-18.3L-419.9,712.3
			L-419.9,712.3z M-420.9,720c0.9,0,1.7-0.2,2.2-0.7s0.8-1.1,0.8-1.9c0-0.7-0.3-1.3-0.8-1.7c-0.5-0.4-1.2-0.6-2-0.6h-2.6v4.9H-420.9
			L-420.9,720z M-420.1,728c1.2,0,2.1-0.2,2.7-0.7s0.9-1.1,0.9-2c0-0.8-0.3-1.4-0.9-1.9s-1.4-0.7-2.5-0.7h-3.3v5.3H-420.1
			L-420.1,728z"/>
		<path class="st5" d="M-397.1,712.3v2.8h-8.3v4.9h8v2.8h-8v5.2h8.5v2.8H-409v-18.5L-397.1,712.3L-397.1,712.3z"/>
	</g>
</g>
<circle class="st5" cx="-119.8" cy="251.6" r="27.9"/>
<path id="logo_unito" class="st6" d="M-105.9,233.4c-0.6-0.5-1.4-0.6-2,0c-3.3,3.1-16.4,15.6-16.4,15.6c-1.7,1.6-3,3.3-3.2,5.8
	c-0.3,3.3,1.7,6.5,4.8,7.7c3,1.2,6.6,0.2,8.7-2.3c2.4-3,2.1-7.4-0.5-10.2c-0.7-0.8-1.5-1.6-2.2-2.3l-2,2c0.8,0.8,1.5,1.6,2.3,2.4
	c1.6,1.7,1.9,4.3,0.5,6.2c-1.4,1.9-4,2.5-6,1.4c-2.1-1.1-3.1-3.6-2.4-5.8c0.4-1.4,1.6-2.1,2.6-3.1c0.5-0.5,14.9-14.3,15.1-14.6
	c4.9,4.4,7.4,10.9,6.6,17.5c-0.8,6.1-4.5,11.5-9.7,14.6c-5.4,3.1-12.1,3.6-17.8,1c-5.8-2.4-10-7.4-11.5-13.3
	c-1.8-7.2,0.7-14.7,6.1-19.6l14.2,13.3l2-2c-2.1-1.9-10.8-10-13.6-12.7c-0.5-0.5-1.1-1-1.6-1.5c-0.6-0.6-1.4-0.5-2,0
	c-6.1,4.9-9.3,12.8-8.3,20.6c0.9,7,5,13.2,11,16.7c6.2,3.6,13.9,4,20.4,1.1c6.3-2.8,11.1-8.5,12.8-15.2
	C-95.8,248.2-99,238.9-105.9,233.4z"/>
<g class="st3">
	<text transform="matrix(1 0 0 1 -84.6667 260.7503)" class="st7 st8 st9 st10">MANUBE</text>
</g>
<g class="st11">
	<path class="st5" d="M-82.8,259.8v-18c0-0.5,0.1-0.9,0.4-1.1c0.3-0.2,0.6-0.4,1.1-0.4c0.5,0,1,0.1,1.3,0.3c0.3,0.2,0.7,0.7,1,1.3
		l3.9,7.4l4-7.4c0.3-0.7,0.7-1.1,1-1.3s0.8-0.3,1.3-0.3c0.4,0,0.8,0.1,1.1,0.4c0.3,0.2,0.4,0.6,0.4,1.1v18c0,0.3-0.1,0.5-0.4,0.7
		c-0.3,0.2-0.6,0.3-1.1,0.3c-0.4,0-0.7-0.1-1-0.3c-0.3-0.2-0.4-0.4-0.4-0.7v-13.4l-3.8,6.9c-0.3,0.4-0.6,0.7-1.1,0.7
		c-0.4,0-0.8-0.2-1-0.7l-3.8-7.1v13.6c0,0.3-0.1,0.5-0.4,0.7s-0.6,0.3-1,0.3c-0.4,0-0.7-0.1-1-0.3
		C-82.7,260.3-82.8,260.1-82.8,259.8z"/>
	<path class="st5" d="M-64,259.5c0-0.1,0-0.2,0-0.3l5.6-18.1c0.2-0.7,0.9-1,2-1c1.1,0,1.8,0.3,2,0.9l5.5,18.1c0,0.1,0.1,0.2,0.1,0.3
		c0,0.4-0.2,0.7-0.7,0.9c-0.4,0.3-0.9,0.4-1.4,0.4c-0.6,0-1-0.2-1.1-0.6l-1.2-4H-60l-1.1,4c-0.1,0.4-0.5,0.6-1,0.6
		c-0.4,0-0.9-0.1-1.3-0.4S-64,259.9-64,259.5z M-59.3,253.8h5.6l-2.8-9.6L-59.3,253.8z"/>
	<path class="st5" d="M-45.8,259.8v-18.5c0-0.7,0.5-1,1.5-1c0.5,0,0.9,0.1,1.3,0.3s0.6,0.7,1,1.3l6.2,12.1v-12.9
		c0-0.3,0.1-0.6,0.4-0.7c0.3-0.2,0.6-0.2,1-0.2c0.4,0,0.8,0.1,1,0.2c0.3,0.2,0.4,0.4,0.4,0.7v18.5c0,0.3-0.1,0.5-0.4,0.7
		c-0.3,0.2-0.6,0.3-1,0.3c-0.8,0-1.4-0.4-1.8-1.1l-6.7-12.7v12.9c0,0.3-0.1,0.5-0.4,0.7c-0.3,0.2-0.6,0.3-1,0.3
		c-0.4,0-0.7-0.1-1-0.3S-45.8,260.1-45.8,259.8z"/>
	<path class="st5" d="M-28.2,254.7v-13.4c0-0.3,0.1-0.6,0.4-0.7c0.3-0.2,0.6-0.2,1-0.2s0.8,0.1,1,0.2c0.3,0.2,0.4,0.4,0.4,0.7v13.4
		c0,1.2,0.3,2.1,0.9,2.7c0.6,0.6,1.4,0.9,2.5,0.9c2.3,0,3.4-1.2,3.4-3.6v-13.4c0-0.3,0.1-0.6,0.4-0.7c0.3-0.2,0.6-0.2,1-0.2
		c0.4,0,0.8,0.1,1,0.2c0.3,0.2,0.4,0.4,0.4,0.7v13.4c0,2.1-0.6,3.7-1.8,4.7c-1.2,1-2.7,1.5-4.7,1.5c-1.9,0-3.5-0.5-4.6-1.5
		C-27.6,258.4-28.2,256.8-28.2,254.7z"/>
	<path class="st5" d="M-10.8,259.8v-18.5c0-0.3,0.1-0.5,0.4-0.7c0.3-0.2,0.6-0.3,0.9-0.3h5.1c1.7,0,3.1,0.4,4.1,1.1
		c1,0.7,1.5,2,1.5,3.8c0,2.3-0.8,3.8-2.4,4.5c1,0.4,1.7,0.9,2.2,1.6c0.5,0.7,0.7,1.7,0.7,3.1v0.5c0,2.1-0.5,3.5-1.5,4.5
		c-1,0.9-2.4,1.4-4.1,1.4h-5.7c-0.4,0-0.7-0.1-1-0.3C-10.7,260.3-10.8,260.1-10.8,259.8z M-7.8,248.5h3.3c1.9,0,2.8-1,2.8-2.9
		c0-1.8-1-2.7-2.9-2.7h-3.3V248.5z M-7.8,258.1h3.5c2.1,0,3.2-1.2,3.2-3.5v-0.4c0-1.2-0.3-2.1-0.8-2.6c-0.5-0.5-1.3-0.8-2.4-0.8
		h-3.5V258.1z"/>
	<path class="st5" d="M5.7,259.8v-18.5c0-0.3,0.1-0.5,0.4-0.7c0.3-0.2,0.6-0.3,0.9-0.3h10c0.3,0,0.6,0.1,0.7,0.4
		c0.2,0.3,0.3,0.6,0.3,0.9c0,0.4-0.1,0.7-0.3,1c-0.2,0.3-0.4,0.4-0.7,0.4H8.7v6.4H13c0.3,0,0.5,0.1,0.7,0.3c0.2,0.2,0.3,0.5,0.3,0.9
		c0,0.3-0.1,0.6-0.3,0.8s-0.4,0.3-0.7,0.3H8.7v6.4H17c0.3,0,0.5,0.1,0.7,0.4c0.2,0.3,0.3,0.6,0.3,1c0,0.3-0.1,0.6-0.3,0.9
		c-0.2,0.3-0.4,0.4-0.7,0.4h-10c-0.4,0-0.7-0.1-0.9-0.3C5.9,260.3,5.7,260.1,5.7,259.8z"/>
</g>
</svg>
