<?xml version="1.0" encoding="UTF-8" standalone="no"?>
<svg width="123px" height="123px" viewBox="0 0 123 123" version="1.1" xmlns="http://www.w3.org/2000/svg" xmlns:xlink="http://www.w3.org/1999/xlink">
    <!-- Generator: Sketch 3.6.1 (26313) - http://www.bohemiancoding.com/sketch -->
    <title>logo</title>
    <desc>Created with Sketch.</desc>
    <defs></defs>
    <g id="Page-1" stroke="none" stroke-width="1" fill="none" fill-rule="evenodd">
        <g id="Desktop" transform="translate(-452.000000, -200.000000)">
            <g id="logo" transform="translate(457.000000, 205.000000)">
                <path d="M112,56 C112,25.07232 86.92768,0 56,0 C25.07232,0 0,25.07232 0,56 C0,86.92768 25.07232,112 56,112 C86.92768,112 112,86.92768 112,56" id="Fill-1" fill="#EE758E"></path>
                <path d="M96.1308693,60.5163627 C94.534496,72.9147627 87.010336,84.091616 76.2777493,90.3531627 C65.2995093,96.7580693 51.4219627,97.6271893 39.786656,92.4348693 C28.3566827,87.3336427 19.7349227,77.1043093 16.730336,64.8940693 C13.1030293,50.1571093 18.2057493,34.816096 29.2131093,24.7637227 C34.9982827,30.1740693 46.9270293,41.327776 51.8184427,45.901856 C50.1638293,47.5266027 48.509216,49.152096 46.853856,50.7768427 C43.4303893,54.138336 40.6834027,57.596896 40.212256,62.623456 C39.5723627,69.4562027 43.7477227,75.9746027 50.0398827,78.484896 C56.2723093,80.9720427 63.6210027,78.9814293 67.8015893,73.727136 C72.7721493,67.4812693 72.1404693,58.6078827 66.695776,52.8914027 C64.4751893,50.5797227 62.2546027,48.2680427 60.034016,45.9563627 C67.1206293,39.282656 74.2072427,32.6089493 81.293856,25.9352427 C81.753056,25.5029227 82.2115093,25.0713493 82.6699627,24.639776 C92.6446827,33.658016 97.876576,46.9561493 96.1308693,60.5163627 M55.901216,49.985376 C58.141216,52.3179627 60.3819627,54.651296 62.6227093,56.9838827 C65.938656,60.4648427 66.4687893,65.8214293 63.604576,69.7742827 C60.8366827,73.5934827 55.4726293,74.8934293 51.2875627,72.7385493 C46.956896,70.5090027 44.9170027,65.430176 46.4110827,60.800096 C47.313056,58.0053227 49.640416,56.131936 51.6594027,54.149536 C53.0728427,52.7614827 54.4870293,51.3734293 55.901216,49.985376 M84.597856,18.7314027 C83.3673493,17.7577493 81.730656,17.5464427 80.525536,18.7314027 C72.7602027,26.0435093 55.999776,41.827296 55.999776,41.827296 C55.999776,41.827296 42.4335893,29.2258027 34.650336,21.9480427 C33.5467627,20.9161493 32.4431893,19.8835093 31.3388693,18.851616 C30.103136,17.695776 28.5246827,17.8473493 27.2665493,18.851616 C14.736736,28.8569493 8.142176,45.077536 10.1977493,61.0405227 C12.033056,75.288416 20.4494827,88.123616 32.835936,95.3506027 C45.5352427,102.759029 61.2555627,103.527349 74.676896,97.6376427 C87.5778027,91.976416 97.4726293,80.1678827 100.844576,66.4329493 C105.159563,48.8571627 98.761376,29.9358827 84.597856,18.7314027" id="Fill-3" fill="#FEFEFE"></path>
            </g>
        </g>
    </g>
</svg>