<?xml version="1.0" encoding="UTF-8" standalone="no"?>
<svg width="123px" height="123px" viewBox="0 0 123 123" version="1.1" xmlns="http://www.w3.org/2000/svg" xmlns:xlink="http://www.w3.org/1999/xlink">
    <!-- Generator: Sketch 3.6.1 (26313) - http://www.bohemiancoding.com/sketch -->
    <title>logo</title>
    <desc>Created with Sketch.</desc>
    <defs></defs>
    <g id="Page-1" stroke="none" stroke-width="1" fill="none" fill-rule="evenodd">
        <g id="Desktop" transform="translate(-452.000000, -200.000000)">
            <g id="logo" transform="translate(452.000000, 200.000000)">
                <path d="M123,61.5 C123,27.53478 95.46522,0 61.5,0 C27.53478,0 0,27.53478 0,61.5 C0,95.46522 27.53478,123 61.5,123 C95.46522,123 123,95.46522 123,61.5" id="Fill-1" fill="#EE758E"></path>
                <path d="M105.572294,66.459934 C103.819134,80.076034 95.555994,92.350614 83.769314,99.227134 C71.712854,106.261094 56.472334,107.215574 43.694274,101.513294 C31.141714,95.911054 21.673174,84.677054 18.373494,71.267594 C14.389934,55.083254 19.993814,38.235534 32.082254,27.195874 C38.435614,33.137594 51.535934,45.386754 56.907754,50.410074 C55.090634,52.194394 53.273514,53.979534 51.455574,55.763854 C47.695874,59.455494 44.679094,63.253734 44.161674,68.773974 C43.458934,76.277794 48.044374,83.436394 54.954514,86.193234 C61.799054,88.924654 69.869494,86.738534 74.460674,80.968194 C79.919414,74.108894 79.225694,64.364014 73.246254,58.086094 C70.807574,55.547374 68.368894,53.008654 65.930214,50.469934 C73.712834,43.140774 81.495454,35.811614 89.278074,28.482454 C89.782374,28.007674 90.285854,27.533714 90.789334,27.059754 C101.743714,36.963714 107.489454,51.567914 105.572294,66.459934 M61.391514,54.894654 C63.851514,57.456334 66.312334,60.018834 68.773154,62.580514 C72.414774,66.403354 72.996974,72.286034 69.851454,76.627114 C66.811714,80.821414 60.920834,82.249034 56.324734,79.882514 C51.568734,77.433994 49.328494,71.856354 50.969314,66.771534 C51.959874,63.702274 54.515814,61.644894 56.733094,59.467794 C58.285354,57.943414 59.838434,56.419034 61.391514,54.894654 M92.906574,20.571094 C91.555214,19.501814 89.757774,19.269754 88.434294,20.571094 C79.906294,28.601354 61.499754,45.935334 61.499754,45.935334 C61.499754,45.935334 46.601174,32.096194 38.053494,24.103654 C36.841534,22.970414 35.629574,21.836354 34.416794,20.703114 C33.059694,19.433754 31.326214,19.600214 29.944514,20.703114 C16.184094,31.691114 8.941854,49.504794 11.199314,67.035574 C13.214874,82.682814 22.457914,96.778614 36.060894,104.715394 C50.007454,112.851434 67.271734,113.695214 82.011234,107.227054 C96.179194,101.009814 107.045834,88.041514 110.748954,72.957614 C115.487734,53.655634 108.461154,32.876014 92.906574,20.571094" id="Fill-3" fill="#FEFEFE"></path>
            </g>
        </g>
    </g>
</svg>