<?xml version="1.0" encoding="utf-8"?>
<!-- Generator: Adobe Illustrator 19.1.0, SVG Export Plug-In . SVG Version: 6.00 Build 0)  -->
<svg version="1.1" id="Livello_1" xmlns="http://www.w3.org/2000/svg" xmlns:xlink="http://www.w3.org/1999/xlink" x="0px" y="0px"
	 viewBox="-144 189.7 211 123.3" style="enable-background:new -144 189.7 211 123.3;" xml:space="preserve">
<style type="text/css">
	.st0{fill:#FFFFFF;}
</style>
<path class="st0" d="M-396.3,637.7c-1.6-1.3-3.6-1.5-5.2,0c-9.9,9.4-31.2,29.8-31.2,29.8s-17.2-16.3-27.1-25.7
	c-1.4-1.3-2.8-2.7-4.2-4c-1.6-1.5-3.6-1.3-5.2,0c-15.9,12.9-24.3,33.9-21.7,54.5c2.3,18.4,13,35,28.8,44.3
	c16.1,9.6,36.1,10.6,53.2,3c16.4-7.3,29-22.6,33.2-40.3C-370.2,676.6-378.4,652.2-396.3,637.7z M-432.8,678.1c2.8,3,5.7,6,8.5,9
	c4.2,4.5,4.9,11.4,1.2,16.5c-3.5,4.9-10.3,6.6-15.6,3.8c-5.5-2.9-8.1-9.4-6.2-15.4c1.1-3.6,4.1-6,6.7-8.6
	C-436.4,681.6-434.6,679.8-432.8,678.1z M-381.7,691.7c-2,16-11.6,30.4-25.2,38.5c-13.9,8.3-31.6,9.4-46.4,2.7
	c-14.5-6.6-25.5-19.8-29.3-35.6c-4.6-19,1.9-38.8,15.9-51.8c7.4,7,22.5,21.4,28.7,27.3c-2.1,2.1-4.2,4.2-6.3,6.3
	c-4.3,4.3-7.8,8.8-8.4,15.3c-0.8,8.8,4.5,17.2,12.5,20.5c7.9,3.2,17.3,0.6,22.6-6.1c6.3-8.1,5.5-19.5-1.4-26.9c-2.8-3-5.6-6-8.5-9
	c9-8.6,18-17.2,27-25.9c0.6-0.6,1.2-1.1,1.7-1.7C-386.1,657-379.5,674.1-381.7,691.7z"/>
<path class="st0" d="M2,200.4c-1.6-1.3-3.6-1.5-5.2,0c-9.9,9.4-31.2,29.8-31.2,29.8s-17.2-16.3-27.1-25.7c-1.4-1.3-2.8-2.7-4.2-4
	c-1.6-1.5-3.6-1.3-5.2,0c-15.9,12.9-24.3,33.9-21.7,54.5c2.3,18.4,13,35,28.8,44.3c16.1,9.6,36.1,10.6,53.2,3
	c16.4-7.3,29-22.6,33.2-40.3C28.2,239.3,20,214.9,2,200.4z M-34.4,240.8c2.8,3,5.7,6,8.5,9c4.2,4.5,4.9,11.4,1.2,16.5
	c-3.5,4.9-10.3,6.6-15.6,3.8c-5.5-2.9-8.1-9.4-6.2-15.4c1.1-3.6,4.1-6,6.7-8.6C-38,244.3-36.2,242.6-34.4,240.8z M16.7,254.4
	c-2,16-11.6,30.4-25.2,38.5c-13.9,8.3-31.6,9.4-46.4,2.7c-14.5-6.6-25.5-19.8-29.3-35.6c-4.6-19,1.9-38.8,15.9-51.8
	c7.4,7,22.5,21.4,28.7,27.3c-2.1,2.1-4.2,4.2-6.3,6.3c-4.3,4.3-7.8,8.8-8.4,15.3c-0.8,8.8,4.5,17.2,12.5,20.5
	c7.9,3.2,17.3,0.6,22.6-6.1c6.3-8.1,5.5-19.5-1.4-26.9c-2.8-3-5.6-6-8.5-9c9-8.6,18-17.2,27-25.9c0.6-0.6,1.2-1.1,1.7-1.7
	C12.3,219.7,18.9,236.8,16.7,254.4z"/>
</svg>
