<?xml version="1.0" encoding="UTF-8" standalone="no"?>
<svg width="146px" height="132px" viewBox="0 0 146 132" version="1.1" xmlns="http://www.w3.org/2000/svg" xmlns:xlink="http://www.w3.org/1999/xlink">
    <!-- Generator: Sketch 3.6.1 (26313) - http://www.bohemiancoding.com/sketch -->
    <title>Untitled</title>
    <desc>Created with Sketch.</desc>
    <defs></defs>
    <g id="Page-1" stroke="none" stroke-width="1" fill="none" fill-rule="evenodd">
        <g id="logo-manube2" fill="#FFFFFF">
            <path d="M118.18733,1.386 C116.271493,-0.132 113.628959,-0.462 111.779186,1.386 C101.275113,11.286 58.59819,51.942 58.59819,51.942 C53.1809955,57.222 48.8208145,62.7 48.0941176,70.62 C47.1031674,81.378 53.7095023,91.674 63.6190045,95.634 C73.4624434,99.528 85.0895928,96.426 91.6959276,88.11 C99.5574661,78.276 98.5665158,64.284 89.9782805,55.242 C87.6,52.734 85.1556561,50.226 82.7773756,47.718 L76.2371041,54.054 C78.681448,56.562 81.1257919,59.136 83.5701357,61.644 C88.7891403,67.122 89.6479638,75.57 85.0895928,81.84 C80.7294118,87.846 72.2733032,89.892 65.6669683,86.526 C58.7963801,83.028 55.6253394,74.976 57.9375566,67.716 C59.3909502,63.294 63.0244344,60.852 66.1954751,57.75 C67.9131222,56.1 114.487783,11.352 115.21448,10.692 C130.937557,24.948 139.261538,45.936 136.486878,67.32 C133.976471,86.856 122.085068,104.544 105.106787,114.378 C87.79819,124.476 65.8651584,125.862 47.4995475,117.678 C29.4642534,109.626 15.8552036,93.456 11.0986425,74.25 C5.35113122,51.018 13.4108597,26.796 30.7855204,10.956 L62.8923077,40.92 L69.3665158,34.452 C62.760181,28.314 48.4244344,15.048 39.241629,6.468 C37.5239819,4.818 35.7402715,3.234 34.0226244,1.584 C32.040724,-0.264 29.5963801,2.6686986e-14 27.6144796,1.584 C7.79547511,17.358 -2.57647059,42.966 0.660633484,68.112 C3.56742081,90.618 16.8461538,110.88 36.400905,122.232 C56.4841629,133.914 81.2579186,135.102 102.464253,125.862 C122.811765,116.952 138.468778,98.274 143.81991,76.626 C150.624434,48.906 140.516742,19.074 118.18733,1.386 L118.18733,1.386 Z" id="Shape"></path>
        </g>
    </g>
</svg>