<?xml version="1.0" encoding="utf-8"?>
<!-- Generator: Adobe Illustrator 19.1.0, SVG Export Plug-In . SVG Version: 6.00 Build 0)  -->
<svg version="1.1" id="Livello_1" xmlns="http://www.w3.org/2000/svg" xmlns:xlink="http://www.w3.org/1999/xlink" x="0px" y="0px"
	 viewBox="-394 439.7 211 123.3" style="enable-background:new -394 439.7 211 123.3;" xml:space="preserve">
<style type="text/css">
	.st0{fill:#FFFFFF;}
</style>
<path id="logo_unito" class="st0" d="M-252.5,449c-1.6-1.3-3.6-1.6-5.2,0c-8.6,8.1-42.7,40.6-42.7,40.6c-4.4,4.2-7.8,8.6-8.3,15.1
	c-0.8,8.6,4.4,16.9,12.5,20c7.8,3.1,17.2,0.5,22.6-6c6.2-7.8,5.5-19.3-1.3-26.6c-1.8-2.1-3.9-4.2-5.7-6l-5.2,5.2
	c2.1,2.1,3.9,4.2,6,6.2c4.2,4.4,4.9,11.2,1.3,16.1c-3.6,4.9-10.4,6.5-15.6,3.6c-5.5-2.9-8.1-9.4-6.2-15.1c1-3.6,4.2-5.5,6.8-8.1
	c1.3-1.3,38.8-37.2,39.3-38c12.8,11.5,19.3,28.4,17.2,45.6c-2.1,15.9-11.7,29.9-25.3,38c-14.1,8.1-31.5,9.4-46.3,2.6
	c-15.1-6.2-26-19.3-29.9-34.6c-4.7-18.7,1.8-38.3,15.9-51l37,34.6l5.2-5.2c-5.5-4.9-28.1-26-35.4-33.1c-1.3-1.3-2.9-2.6-4.2-3.9
	c-1.6-1.6-3.6-1.3-5.2,0c-15.9,12.8-24.2,33.3-21.6,53.6c2.3,18.2,13,34.4,28.6,43.5c16.1,9.4,36.2,10.4,53.1,2.9
	c16.4-7.3,28.9-22.1,33.3-39.6C-226.2,487.6-234.6,463.3-252.5,449z"/>
</svg>
