<?xml version="1.0" encoding="utf-8"?>
<!-- Generator: Adobe Illustrator 19.1.0, SVG Export Plug-In . SVG Version: 6.00 Build 0)  -->
<svg version="1.1" id="Livello_1" xmlns="http://www.w3.org/2000/svg" xmlns:xlink="http://www.w3.org/1999/xlink" x="0px" y="0px"
	 viewBox="0 0 211 123.3" style="enable-background:new 0 0 211 123.3;" xml:space="preserve">
<style type="text/css">
	.st0{fill:#FFFFFF;}
</style>
<g id="Page-1">
	<g id="logo-manube2">
		<path id="Shape" class="st0" d="M142.2,8.3c-1.6-1.2-3.7-1.5-5.2,0c-8.5,8-43.1,41-43.1,41c-4.4,4.3-7.9,8.7-8.5,15.1
			C84.6,73.1,90,81.5,98,84.7c8,3.2,17.4,0.6,22.8-6.1c6.4-8,5.6-19.3-1.4-26.6c-1.9-2-3.9-4.1-5.8-6.1l-5.3,5.1c2,2,4,4.1,5.9,6.2
			c4.2,4.4,4.9,11.3,1.2,16.4c-3.5,4.9-10.4,6.5-15.7,3.8c-5.6-2.8-8.1-9.4-6.3-15.2c1.2-3.6,4.1-5.6,6.7-8.1
			c1.4-1.3,39.1-37.6,39.7-38.1c12.7,11.6,19.5,28.6,17.2,45.9c-2,15.8-11.7,30.2-25.4,38.1c-14,8.2-31.8,9.3-46.7,2.7
			C70.3,96,59.3,82.9,55.4,67.4c-4.7-18.8,1.9-38.5,16-51.3l26,24.3l5.2-5.2c-5.4-5-17-15.7-24.4-22.7c-1.4-1.3-2.8-2.6-4.2-4
			c-1.6-1.5-3.6-1.3-5.2,0C52.8,21.3,44.4,42,47,62.4c2.4,18.2,13.1,34.7,29,43.9c16.3,9.5,36.4,10.4,53.5,2.9
			C146,102,158.7,86.8,163,69.3C168.5,46.8,160.3,22.6,142.2,8.3L142.2,8.3z"/>
	</g>
</g>
</svg>
