<?xml version="1.0" encoding="utf-8"?>
<!-- Generator: Adobe Illustrator 19.1.0, SVG Export Plug-In . SVG Version: 6.00 Build 0)  -->
<svg version="1.1" id="Livello_1" xmlns="http://www.w3.org/2000/svg" xmlns:xlink="http://www.w3.org/1999/xlink" x="0px" y="0px"
	 viewBox="-459 461 80 80" style="enable-background:new -459 461 80 80;" xml:space="preserve">
<style type="text/css">
	.st0{fill:#BE4856;}
</style>
<path class="st0" d="M-419,481c-6.2,0-11.2,5-11.2,11.2v17.5c0,6.2,5,11.2,11.2,11.2s11.2-5,11.2-11.2v-17.5
	C-407.8,486-412.8,481-419,481z M-410.2,509.8c0,4.8-3.9,8.8-8.8,8.8s-8.8-3.9-8.8-8.8v-17.5c0-4.8,3.9-8.8,8.8-8.8s8.8,3.9,8.8,8.8
	V509.8z M-419,487.2c-0.7,0-1.2,0.6-1.2,1.2v6.2c0,0.7,0.6,1.2,1.2,1.2c0.7,0,1.2-0.6,1.2-1.2v-6.2
	C-417.8,487.8-418.3,487.2-419,487.2z"/>
</svg>
