<?xml version="1.0" encoding="utf-8"?>
<!-- Generator: Adobe Illustrator 19.1.0, SVG Export Plug-In . SVG Version: 6.00 Build 0)  -->
<svg version="1.1" id="Livello_1" xmlns="http://www.w3.org/2000/svg" xmlns:xlink="http://www.w3.org/1999/xlink" x="0px" y="0px"
	 viewBox="0 0 64 64" style="enable-background:new 0 0 64 64;" xml:space="preserve">
<style type="text/css">
	.st0{display:none;}
	.st1{display:inline;fill-rule:evenodd;clip-rule:evenodd;fill:#FFFFFF;}
	.st2{fill:#FFFFFF;}
</style>
<g id="mail" class="st0">
	<path class="st1" d="M14.5,19.3c11.7,0,23.2,0,34.9,0C43.5,25,37.8,30.5,31.9,36.1C26.1,30.5,20.4,25,14.5,19.3z"/>
	<path class="st1" d="M14.5,43.4c3.4-3.3,6.7-6.5,10-9.6c0.1,0.1,0.3,0.2,0.4,0.4c1.9,1.8,3.7,3.6,5.6,5.4c1,1,1.9,1,2.8,0
		c2-1.9,4-3.8,6-5.7c3.3,3.2,6.6,6.4,10,9.7C37.7,43.4,26.2,43.4,14.5,43.4z"/>
	<path class="st1" d="M11.8,21.5c3.4,3.3,6.8,6.6,10.3,9.9c-3.5,3.3-6.9,6.6-10.5,10.1c-0.1-0.7-0.2-1.2-0.2-1.7
		c0-5.6,0-11.2,0-16.7c0-0.5,0.1-1,0.2-1.5C11.6,21.5,11.7,21.5,11.8,21.5z"/>
	<path class="st1" d="M41.8,31.4c3.5-3.3,6.9-6.6,10.5-10.1c0.1,0.7,0.2,1.2,0.2,1.7c0,5.6,0,11.2,0,16.8c0,0.5-0.1,1-0.2,1.7
		C48.7,38,45.3,34.7,41.8,31.4z"/>
</g>
<g id="linkedin">
	<path class="st2" d="M32.7,29.8L32.7,29.8C32.7,29.8,32.6,29.8,32.7,29.8L32.7,29.8z"/>
	<path class="st2" d="M47.5,12.5H14.9c-1.6,0-2.8,1.2-2.8,2.7v33c0,1.5,1.3,2.8,2.8,2.8h32.6c1.6,0,2.8-1.2,2.8-2.8v-33
		C50.3,13.7,49.1,12.5,47.5,12.5z M23.7,44.7h-5.8V27.3h5.8V44.7z M20.8,25L20.8,25c-2,0-3.2-1.3-3.2-3c0-1.7,1.3-3,3.3-3
		c2,0,3.2,1.3,3.2,3C24.1,23.6,22.8,25,20.8,25z M44.5,44.7h-5.8v-9.3c0-2.3-0.8-3.9-2.9-3.9c-1.6,0-2.5,1.1-3,2.1
		c-0.1,0.4-0.2,0.9-0.2,1.4v9.7h-5.8c0,0,0.1-15.7,0-17.4h5.8v2.5c0.8-1.2,2.1-2.9,5.2-2.9c3.8,0,6.6,2.5,6.6,7.8V44.7z"/>
</g>
</svg>
